<svg xmlns="http://www.w3.org/2000/svg" viewBox="0 0 1760 820" font-family="Segoe UI, Arial, sans-serif">
  <defs>
    <marker id="lead-dot" markerWidth="8" markerHeight="8" refX="4" refY="4"><circle cx="4" cy="4" r="3" fill="#1e3a8a"/></marker>
    <style>
      .frame{fill:#0f1422;stroke:#3b4a6b;stroke-width:2;} .zone{fill:#1a2336;stroke:#2c3a57;stroke-width:1;}
      .item{fill:#16203a;stroke:#33507f;stroke-width:1.5;} .itemSel{fill:#1e3357;stroke:#7aa2e8;stroke-width:2.5;}
      .region{fill:none;stroke:#5b8def;stroke-width:2;stroke-dasharray:6 4;} .regionC{fill:none;stroke:#5b8def;stroke-width:2;stroke-dasharray:6 4;}
      .lead{fill:none;stroke:#1e3a8a;stroke-width:1.5;marker-start:url(#lead-dot);} .badge{fill:#1e3a8a;}
      .badgeT{fill:#fff;font-size:17px;font-weight:700;text-anchor:middle;dominant-baseline:central;}
      .callT{fill:#dbe4f5;font-size:18px;} .callTb{fill:#fff;font-size:18px;font-weight:700;} .ghost{fill:#6b7796;font-size:16px;} .title{fill:#fff;font-size:22px;font-weight:700;}
    </style>
  </defs>
  <rect x="0" y="0" width="1760" height="820" fill="#0b0f1a"/>
  <text x="200" y="38" class="title">Character Select (Kohaku / Toko) — 16:9</text>
  <rect x="200" y="50" width="1280" height="720" rx="10" class="frame"/>
  <rect x="230" y="160" width="320" height="420" rx="8" class="zone"/>
  <rect x="240" y="180" width="300" height="54" rx="8" class="itemSel"/><rect x="240" y="246" width="300" height="54" rx="8" class="item"/><rect x="240" y="312" width="300" height="54" rx="8" class="item"/><rect x="240" y="378" width="300" height="54" rx="8" class="item"/><text x="252" y="152" class="ghost">Character list</text>
  <rect x="600" y="160" width="300" height="440" rx="8" class="zone"/><text x="640" y="152" class="ghost">3D preview</text>
  <rect x="960" y="150" width="320" height="450" rx="8" class="zone"/><text x="980" y="142" class="ghost">Info card</text>
  <g id="c1"><rect x="230" y="78" width="300" height="48" rx="6" class="region"/><polyline class="lead" points="230,102 150,102 150,90 60,90"/><g transform="translate(252,102)"><circle r="15" class="badge"/><text class="badgeT">1</text></g><g transform="translate(10,90)"><circle cx="14" cy="0" r="13" class="badge"/><text x="14" y="0" class="badgeT">1</text><text x="34" y="0" class="callTb" dominant-baseline="central">Screen title</text><text x="34" y="20" class="callT" dominant-baseline="central">Character Select</text></g></g>
  <g id="c2"><rect x="230" y="160" width="320" height="420" rx="8" class="region"/><polyline class="lead" points="230,300 150,300 150,250 60,250"/><g transform="translate(252,182)"><circle r="15" class="badge"/><text class="badgeT">2</text></g><g transform="translate(10,250)"><circle cx="14" cy="0" r="13" class="badge"/><text x="14" y="0" class="badgeT">2</text><text x="34" y="0" class="callTb" dominant-baseline="central">Character list</text><text x="34" y="20" class="callT" dominant-baseline="central">left · 6</text></g></g>
  <g id="c3"><circle cx="510" cy="405" r="18" class="regionC"/><polyline class="lead" points="492,405 158,405 158,540 60,540"/><g transform="translate(510,405)"><circle r="15" class="badge"/><text class="badgeT">3</text></g><g transform="translate(10,540)"><circle cx="14" cy="0" r="13" class="badge"/><text x="14" y="0" class="badgeT">3</text><text x="34" y="0" class="callTb" dominant-baseline="central">Select/lock mark</text><text x="34" y="20" class="callT" dominant-baseline="central">color+lock</text></g></g>
  <g id="c4"><rect x="600" y="160" width="300" height="440" rx="8" class="region"/><polyline class="lead" points="600,560 150,560 150,600 60,600"/><g transform="translate(622,182)"><circle r="15" class="badge"/><text class="badgeT">4</text></g><g transform="translate(10,600)"><circle cx="14" cy="0" r="13" class="badge"/><text x="14" y="0" class="badgeT">4</text><text x="34" y="0" class="callTb" dominant-baseline="central">3D preview</text><text x="34" y="20" class="callT" dominant-baseline="central">center · rotate</text></g></g>
  <g id="c5"><rect x="960" y="150" width="320" height="90" rx="6" class="region"/><polyline class="lead" points="1280,190 1490,190 1490,250 1530,250"/><g transform="translate(985,172)"><circle r="15" class="badge"/><text class="badgeT">5</text></g><g transform="translate(1490,250)"><circle cx="14" cy="0" r="13" class="badge"/><text x="14" y="0" class="badgeT">5</text><text x="34" y="0" class="callTb" dominant-baseline="central">Name·archetype</text><text x="34" y="20" class="callT" dominant-baseline="central">recommended for</text></g></g>
  <g id="c6"><rect x="960" y="250" width="320" height="180" rx="6" class="region"/><polyline class="lead" points="1280,340 1490,340 1490,420 1530,420"/><g transform="translate(985,272)"><circle r="15" class="badge"/><text class="badgeT">6</text></g><g transform="translate(1490,420)"><circle cx="14" cy="0" r="13" class="badge"/><text x="14" y="0" class="badgeT">6</text><text x="34" y="0" class="callTb" dominant-baseline="central">Core stats</text><text x="34" y="20" class="callT" dominant-baseline="central">dash·lucid window</text></g></g>
  <g id="c7"><rect x="960" y="450" width="320" height="130" rx="6" class="region"/><polyline class="lead" points="1280,510 1490,510 1490,560 1530,560"/><g transform="translate(985,472)"><circle r="15" class="badge"/><text class="badgeT">7</text></g><g transform="translate(1490,560)"><circle cx="14" cy="0" r="13" class="badge"/><text x="14" y="0" class="badgeT">7</text><text x="34" y="0" class="callTb" dominant-baseline="central">Weapon·passive·ult</text><text x="34" y="20" class="callT" dominant-baseline="central">summary</text></g></g>
  <g id="c8"><rect x="960" y="690" width="320" height="44" rx="6" class="region"/><polyline class="lead" points="1280,712 1490,712 1490,710 1530,710"/><g transform="translate(985,712)"><circle r="15" class="badge"/><text class="badgeT">8</text></g><g transform="translate(1490,710)"><circle cx="14" cy="0" r="13" class="badge"/><text x="14" y="0" class="badgeT">8</text><text x="34" y="0" class="callTb" dominant-baseline="central">Start button</text><text x="34" y="20" class="callT" dominant-baseline="central">bottom · Enter/A</text></g></g>
</svg>
