<svg xmlns="http://www.w3.org/2000/svg" viewBox="0 0 1760 820" font-family="Segoe UI, Arial, sans-serif">
  <defs>
    <marker id="arrow" markerWidth="10" markerHeight="10" refX="8" refY="3" orient="auto"><path d="M0,0 L8,3 L0,6 Z" fill="#7aa2e8"/></marker>
    <style>
      .menu{fill:#15233f;stroke:#4a6aa5;stroke-width:2;} .run{fill:#172a2a;stroke:#5bcf9e;stroke-width:2;}
      .end{fill:#2a1730;stroke:#cf7ad0;stroke-width:2;} .modal{fill:#231a36;stroke:#a07ae8;stroke-width:2;} .box{fill:#16203a;stroke:#5b8def;stroke-width:2;}
      .t{fill:#eaf0fb;font-size:18px;font-weight:700;text-anchor:middle;} .ts{fill:#9fb3d6;font-size:13px;text-anchor:middle;}
      .edge{stroke:#7aa2e8;stroke-width:2;fill:none;marker-end:url(#arrow);} .elab{fill:#c4d2ec;font-size:12px;text-anchor:middle;}
      .band{fill:#aab8d4;font-size:15px;font-weight:700;} .title{fill:#fff;font-size:22px;font-weight:700;}
    </style>
  </defs>
  <rect x="0" y="0" width="1760" height="820" fill="#0b0f1a"/>
  <text x="40" y="36" class="title">Wireflow — Out-game + In-game · State ↔ HUD</text>
  <text x="20" y="92" class="band">Out-game (HUD hidden)</text>
  <text x="20" y="312" class="band">In-run (HUD shown)</text>
  <text x="20" y="612" class="band">Ending → Result</text>
  <line x1="40" y1="104" x2="1720" y2="104" stroke="#27324d"/><line x1="40" y1="540" x2="1720" y2="540" stroke="#27324d"/>
  <rect x="60" y="130" width="160" height="58" rx="8" class="menu"/><text x="140" y="156" class="t">Title/Main</text><text x="140" y="176" class="ts">O1</text>
  <rect x="300" y="130" width="170" height="58" rx="8" class="menu"/><text x="385" y="156" class="t">Character Sel</text><text x="385" y="176" class="ts">O2</text>
  <rect x="550" y="130" width="180" height="58" rx="8" class="menu"/><text x="640" y="153" class="t">Stage/Difficulty</text><text x="640" y="175" class="ts">O3</text>
  <rect x="980" y="130" width="150" height="58" rx="8" class="menu"/><text x="1055" y="156" class="t">Options O4</text><text x="1055" y="176" class="ts">a11y</text>
  <rect x="1160" y="130" width="170" height="58" rx="8" class="menu"/><text x="1245" y="153" class="t">Meta Progress</text><text x="1245" y="175" class="ts">O5 unlock/codex</text>
  <rect x="1360" y="130" width="150" height="58" rx="8" class="menu"/><text x="1435" y="156" class="t">Leaderboard</text><text x="1435" y="176" class="ts">O6</text>
  <line class="edge" x1="220" y1="159" x2="298" y2="159"/><text x="259" y="151" class="elab">single</text>
  <line class="edge" x1="470" y1="159" x2="548" y2="159"/><text x="509" y="151" class="elab">confirm</text>
  <line class="edge" x1="730" y1="159" x2="820" y2="200"/><text x="785" y="170" class="elab">start</text>
  <rect x="60" y="350" width="170" height="58" rx="8" class="run"/><text x="145" y="376" class="t">RunStart</text><text x="145" y="396" class="ts">timer 0</text>
  <rect x="300" y="350" width="190" height="58" rx="8" class="run"/><text x="395" y="376" class="t">NormalRun</text><text x="395" y="396" class="ts">I1 HUD</text>
  <rect x="300" y="240" width="190" height="54" rx="8" class="modal"/><text x="395" y="264" class="t">Level-up I3</text><text x="395" y="284" class="ts">paused</text>
  <rect x="820" y="240" width="150" height="54" rx="8" class="modal"/><text x="895" y="264" class="t">Pause I5</text><text x="895" y="284" class="ts">ESC</text>
  <rect x="560" y="350" width="180" height="58" rx="8" class="run"/><text x="650" y="376" class="t">BossWarning</text><text x="650" y="396" class="ts">5s</text>
  <rect x="810" y="350" width="180" height="58" rx="8" class="run"/><text x="900" y="376" class="t">BossFight</text><text x="900" y="396" class="ts">I2 boss HUD</text>
  <rect x="1060" y="350" width="200" height="58" rx="8" class="modal"/><text x="1160" y="376" class="t">BossReward</text><text x="1160" y="396" class="ts">I4 tree+pick</text>
  <rect x="1330" y="350" width="210" height="58" rx="8" class="run"/><text x="1435" y="376" class="t">HiddenBoss</text><text x="1435" y="396" class="ts">after 4 seals</text>
  <line class="edge" x1="230" y1="379" x2="298" y2="379"/><text x="264" y="371" class="elab">1s</text>
  <line class="edge" x1="380" y1="348" x2="380" y2="296"/><text x="345" y="324" class="elab">level-up</text>
  <line class="edge" x1="415" y1="296" x2="415" y2="348"/><text x="452" y="324" class="elab">confirm</text>
  <line class="edge" x1="490" y1="379" x2="558" y2="379"/><text x="524" y="371" class="elab">threshold</text>
  <line class="edge" x1="740" y1="379" x2="808" y2="379"/><text x="774" y="371" class="elab">appear</text>
  <line class="edge" x1="990" y1="379" x2="1058" y2="379"/><text x="1024" y="371" class="elab">defeat</text>
  <line class="edge" x1="1160" y1="348" x2="1160" y2="320"/><line class="edge" x1="1160" y1="320" x2="410" y2="320"/><text x="780" y="313" class="elab">after reward</text>
  <line class="edge" x1="1260" y1="379" x2="1328" y2="379"/><text x="1294" y="371" class="elab">open</text>
  <rect x="300" y="640" width="200" height="56" rx="8" class="end"/><text x="400" y="664" class="t">FailedWake</text><text x="400" y="684" class="ts">HP 0</text>
  <rect x="650" y="640" width="200" height="56" rx="8" class="end"/><text x="750" y="664" class="t">DawnWake</text><text x="750" y="684" class="ts">7:00</text>
  <rect x="1330" y="640" width="210" height="56" rx="8" class="end"/><text x="1435" y="664" class="t">DreamBreak</text><text x="1435" y="684" class="ts">kill before 7:00</text>
  <rect x="900" y="730" width="220" height="56" rx="8" class="box"/><text x="1010" y="754" class="t">Result I6</text><text x="1010" y="774" class="ts">3 branches</text>
  <line class="edge" x1="395" y1="408" x2="398" y2="638"/><text x="365" y="520" class="elab">HP0</text>
  <line class="edge" x1="900" y1="408" x2="755" y2="638"/><text x="840" y="520" class="elab">7:00</text>
  <line class="edge" x1="1435" y1="408" x2="1435" y2="638"/><text x="1480" y="520" class="elab">self-destruct</text>
  <line class="edge" x1="470" y1="696" x2="950" y2="730"/>
  <line class="edge" x1="750" y1="696" x2="1000" y2="728"/>
  <line class="edge" x1="1430" y1="696" x2="1120" y2="736"/>
</svg>
