<svg xmlns="http://www.w3.org/2000/svg" viewBox="0 0 1760 820" font-family="Segoe UI, Arial, sans-serif">
  <defs>
    <marker id="lead-dot" markerWidth="8" markerHeight="8" refX="4" refY="4"><circle cx="4" cy="4" r="3" fill="#1e3a8a"/></marker>
    <style>
      .frame{fill:#0f1422;stroke:#3b4a6b;stroke-width:2;} .zone{fill:#1a2336;stroke:#2c3a57;stroke-width:1;}
      .item{fill:#16203a;stroke:#33507f;stroke-width:1.5;} .itemSel{fill:#1e3357;stroke:#7aa2e8;stroke-width:2.5;}
      .region{fill:none;stroke:#5b8def;stroke-width:2;stroke-dasharray:6 4;}
      .lead{fill:none;stroke:#1e3a8a;stroke-width:1.5;marker-start:url(#lead-dot);} .badge{fill:#1e3a8a;}
      .badgeT{fill:#fff;font-size:17px;font-weight:700;text-anchor:middle;dominant-baseline:central;}
      .callT{fill:#dbe4f5;font-size:18px;} .callTb{fill:#fff;font-size:18px;font-weight:700;} .ghost{fill:#6b7796;font-size:16px;} .title{fill:#fff;font-size:22px;font-weight:700;}
    </style>
  </defs>
  <rect x="0" y="0" width="1760" height="820" fill="#0b0f1a"/>
  <text x="200" y="38" class="title">Leaderboard / Records — 16:9</text>
  <rect x="200" y="50" width="1280" height="720" rx="10" class="frame"/>
  <rect x="230" y="135" width="1050" height="40" rx="6" class="zone"/><text x="250" y="162" class="ghost">Filters: stage·difficulty·character·solo/co-op</text>
  <rect x="230" y="200" width="180" height="460" rx="8" class="zone"/><text x="240" y="192" class="ghost">Record type</text>
  <rect x="430" y="200" width="850" height="440" rx="8" class="zone"/><rect x="450" y="440" width="820" height="40" rx="6" class="itemSel"/><text x="450" y="192" class="ghost">Rank table</text>
  <g id="c1"><rect x="230" y="75" width="300" height="48" rx="6" class="region"/><polyline class="lead" points="230,99 150,99 150,90 60,90"/><g transform="translate(252,99)"><circle r="15" class="badge"/><text class="badgeT">1</text></g><g transform="translate(10,90)"><circle cx="14" cy="0" r="13" class="badge"/><text x="14" y="0" class="badgeT">1</text><text x="34" y="0" class="callTb" dominant-baseline="central">Screen title</text><text x="34" y="20" class="callT" dominant-baseline="central">Leaderboard</text></g></g>
  <g id="c2"><rect x="230" y="135" width="1050" height="40" rx="6" class="region"/><polyline class="lead" points="230,155 150,155 150,200 60,200"/><g transform="translate(252,155)"><circle r="15" class="badge"/><text class="badgeT">2</text></g><g transform="translate(10,200)"><circle cx="14" cy="0" r="13" class="badge"/><text x="14" y="0" class="badgeT">2</text><text x="34" y="0" class="callTb" dominant-baseline="central">Filter tabs</text><text x="34" y="20" class="callT" dominant-baseline="central">difficulty·char…</text></g></g>
  <g id="c3"><rect x="230" y="200" width="180" height="460" rx="8" class="region"/><polyline class="lead" points="230,380 150,380 150,360 60,360"/><g transform="translate(252,222)"><circle r="15" class="badge"/><text class="badgeT">3</text></g><g transform="translate(10,360)"><circle cx="14" cy="0" r="13" class="badge"/><text x="14" y="0" class="badgeT">3</text><text x="34" y="0" class="callTb" dominant-baseline="central">Record type</text><text x="34" y="20" class="callT" dominant-baseline="central">DB time·purify…</text></g></g>
  <g id="c4"><rect x="430" y="200" width="850" height="440" rx="8" class="region"/><polyline class="lead" points="1280,330 1490,330 1490,300 1530,300"/><g transform="translate(455,222)"><circle r="15" class="badge"/><text class="badgeT">4</text></g><g transform="translate(1490,300)"><circle cx="14" cy="0" r="13" class="badge"/><text x="14" y="0" class="badgeT">4</text><text x="34" y="0" class="callTb" dominant-baseline="central">Rank table</text><text x="34" y="20" class="callT" dominant-baseline="central">rank·record·char</text></g></g>
  <g id="c5"><rect x="450" y="440" width="820" height="40" rx="6" class="region"/><polyline class="lead" points="1270,460 1490,460 1490,470 1530,470"/><g transform="translate(475,460)"><circle r="15" class="badge"/><text class="badgeT">5</text></g><g transform="translate(1490,470)"><circle cx="14" cy="0" r="13" class="badge"/><text x="14" y="0" class="badgeT">5</text><text x="34" y="0" class="callTb" dominant-baseline="central">My rank highlight</text><text x="34" y="20" class="callT" dominant-baseline="central">highlight</text></g></g>
  <g id="c6"><rect x="430" y="690" width="850" height="44" rx="6" class="region"/><polyline class="lead" points="1280,712 1490,712 1490,700 1530,700"/><g transform="translate(455,712)"><circle r="15" class="badge"/><text class="badgeT">6</text></g><g transform="translate(1490,700)"><circle cx="14" cy="0" r="13" class="badge"/><text x="14" y="0" class="badgeT">6</text><text x="34" y="0" class="callTb" dominant-baseline="central">Back · input</text><text x="34" y="20" class="callT" dominant-baseline="central">bottom</text></g></g>
</svg>
