<svg xmlns="http://www.w3.org/2000/svg" viewBox="0 0 1760 820" font-family="Segoe UI, Arial, sans-serif">
  <defs>
    <marker id="lead-dot" markerWidth="8" markerHeight="8" refX="4" refY="4"><circle cx="4" cy="4" r="3" fill="#1e3a8a"/></marker>
    <style>
      .frame{fill:#0f1422;stroke:#3b4a6b;stroke-width:2;} .zone{fill:#1a2336;stroke:#2c3a57;stroke-width:1;}
      .region{fill:none;stroke:#5b8def;stroke-width:2;stroke-dasharray:6 4;}
      .lead{fill:none;stroke:#1e3a8a;stroke-width:1.5;marker-start:url(#lead-dot);} .badge{fill:#1e3a8a;}
      .badgeT{fill:#fff;font-size:17px;font-weight:700;text-anchor:middle;dominant-baseline:central;}
      .callT{fill:#dbe4f5;font-size:18px;} .callTb{fill:#fff;font-size:18px;font-weight:700;} .ghost{fill:#6b7796;font-size:16px;} .title{fill:#fff;font-size:22px;font-weight:700;}
    </style>
  </defs>
  <rect x="0" y="0" width="1760" height="820" fill="#0b0f1a"/>
  <text x="200" y="38" class="title">Result / Summary (Dawn Wake · Dream Break · Failed Wake) — 16:9</text>
  <rect x="200" y="50" width="1280" height="720" rx="10" class="frame"/>
  <rect x="560" y="75" width="440" height="60" rx="6" class="zone"/><text x="640" y="112" class="ghost">Result title / ending badge</text>
  <rect x="230" y="180" width="300" height="440" rx="8" class="zone"/><text x="250" y="172" class="ghost">Character ending pose</text>
  <rect x="880" y="160" width="400" height="180" rx="8" class="zone"/><text x="900" y="152" class="ghost">Final build (partition A)</text>
  <rect x="880" y="360" width="400" height="150" rx="8" class="zone"/><text x="900" y="352" class="ghost">Run stats (partition B)</text>
  <g id="c1"><rect x="560" y="75" width="440" height="60" rx="6" class="region"/><polyline class="lead" points="560,105 150,105 150,90 60,90"/><g transform="translate(585,105)"><circle r="15" class="badge"/><text class="badgeT">1</text></g><g transform="translate(10,90)"><circle cx="14" cy="0" r="13" class="badge"/><text x="14" y="0" class="badgeT">1</text><text x="34" y="0" class="callTb" dominant-baseline="central">Ending badge</text><text x="34" y="20" class="callT" dominant-baseline="central">3 branches</text></g></g>
  <g id="c2"><rect x="230" y="180" width="300" height="440" rx="8" class="region"/><polyline class="lead" points="230,400 150,400 150,320 60,320"/><g transform="translate(252,202)"><circle r="15" class="badge"/><text class="badgeT">2</text></g><g transform="translate(10,320)"><circle cx="14" cy="0" r="13" class="badge"/><text x="14" y="0" class="badgeT">2</text><text x="34" y="0" class="callTb" dominant-baseline="central">Ending pose</text><text x="34" y="20" class="callT" dominant-baseline="central">per-branch</text></g></g>
  <g id="c3"><rect x="230" y="640" width="560" height="90" rx="8" class="region"/><polyline class="lead" points="230,685 150,685 150,640 60,640"/><g transform="translate(252,658)"><circle r="15" class="badge"/><text class="badgeT">6</text></g><g transform="translate(10,640)"><circle cx="14" cy="0" r="13" class="badge"/><text x="14" y="0" class="badgeT">6</text><text x="34" y="0" class="callTb" dominant-baseline="central">Currency·unlock</text><text x="34" y="20" class="callT" dominant-baseline="central">shards/stardust/core</text></g></g>
  <g id="c4"><rect x="880" y="160" width="400" height="180" rx="8" class="region"/><polyline class="lead" points="1280,250 1490,250 1490,330 1530,330"/><g transform="translate(905,182)"><circle r="15" class="badge"/><text class="badgeT">3</text></g><g transform="translate(1490,330)"><circle cx="14" cy="0" r="13" class="badge"/><text x="14" y="0" class="badgeT">3</text><text x="34" y="0" class="callTb" dominant-baseline="central">Final build</text><text x="34" y="20" class="callT" dominant-baseline="central">weapon·items·level</text></g></g>
  <g id="c5"><rect x="880" y="360" width="400" height="150" rx="8" class="region"/><polyline class="lead" points="1280,435 1490,435 1490,460 1530,460"/><g transform="translate(905,382)"><circle r="15" class="badge"/><text class="badgeT">4</text></g><g transform="translate(1490,460)"><circle cx="14" cy="0" r="13" class="badge"/><text x="14" y="0" class="badgeT">4</text><text x="34" y="0" class="callTb" dominant-baseline="central">Run stats</text><text x="34" y="20" class="callT" dominant-baseline="central">time·kills·evades</text></g></g>
  <g id="c6"><rect x="880" y="530" width="400" height="110" rx="8" class="region"/><polyline class="lead" points="1280,585 1490,585 1490,580 1530,580"/><g transform="translate(905,552)"><circle r="15" class="badge"/><text class="badgeT">5</text></g><g transform="translate(1490,580)"><circle cx="14" cy="0" r="13" class="badge"/><text x="14" y="0" class="badgeT">5</text><text x="34" y="0" class="callTb" dominant-baseline="central">Records·splits</text><text x="34" y="20" class="callT" dominant-baseline="central">DB time·boss</text></g></g>
  <g id="c7"><rect x="880" y="690" width="400" height="44" rx="6" class="region"/><polyline class="lead" points="1280,712 1490,712 1490,710 1530,710"/><g transform="translate(905,712)"><circle r="15" class="badge"/><text class="badgeT">7</text></g><g transform="translate(1490,710)"><circle cx="14" cy="0" r="13" class="badge"/><text x="14" y="0" class="badgeT">7</text><text x="34" y="0" class="callTb" dominant-baseline="central">Action buttons</text><text x="34" y="20" class="callT" dominant-baseline="central">retry/main/ranks</text></g></g>
</svg>
