<svg xmlns="http://www.w3.org/2000/svg" viewBox="0 0 1760 820" font-family="Segoe UI, Arial, sans-serif">
  <defs>
    <marker id="lead-dot" markerWidth="8" markerHeight="8" refX="4" refY="4"><circle cx="4" cy="4" r="3" fill="#1e3a8a"/></marker>
    <style>
      .frame{fill:#0f1422;stroke:#3b4a6b;stroke-width:2;} .zone{fill:#1a2336;stroke:#2c3a57;stroke-width:1;}
      .item{fill:#16203a;stroke:#33507f;stroke-width:1.5;} .itemSel{fill:#1e3357;stroke:#7aa2e8;stroke-width:2.5;}
      .region{fill:none;stroke:#5b8def;stroke-width:2;stroke-dasharray:6 4;}
      .lead{fill:none;stroke:#1e3a8a;stroke-width:1.5;marker-start:url(#lead-dot);} .badge{fill:#1e3a8a;}
      .badgeT{fill:#fff;font-size:17px;font-weight:700;text-anchor:middle;dominant-baseline:central;}
      .callT{fill:#dbe4f5;font-size:18px;} .callTb{fill:#fff;font-size:18px;font-weight:700;} .ghost{fill:#6b7796;font-size:16px;} .title{fill:#fff;font-size:22px;font-weight:700;}
    </style>
  </defs>
  <rect x="0" y="0" width="1760" height="820" fill="#0b0f1a"/>
  <text x="200" y="38" class="title">Title / Main Menu — 16:9</text>
  <rect x="200" y="50" width="1280" height="720" rx="10" class="frame"/>
  <rect x="820" y="110" width="560" height="620" rx="8" class="zone"/><text x="1020" y="430" class="ghost">Key art (character)</text>
  <rect x="250" y="230" width="340" height="320" rx="8" class="zone"/>
  <rect x="260" y="238" width="320" height="46" rx="6" class="itemSel"/><rect x="260" y="298" width="320" height="46" rx="6" class="item"/><rect x="260" y="358" width="320" height="46" rx="6" class="item"/><rect x="260" y="418" width="320" height="46" rx="6" class="item"/><text x="262" y="222" class="ghost">Menu</text>
  <g id="c1"><rect x="230" y="75" width="360" height="70" rx="6" class="region"/><polyline class="lead" points="230,110 150,110 150,90 60,90"/><g transform="translate(252,97)"><circle r="15" class="badge"/><text class="badgeT">1</text></g><g transform="translate(10,90)"><circle cx="14" cy="0" r="13" class="badge"/><text x="14" y="0" class="badgeT">1</text><text x="34" y="0" class="callTb" dominant-baseline="central">Game logo</text><text x="34" y="20" class="callT" dominant-baseline="central">top-left</text></g></g>
  <g id="c3"><rect x="260" y="238" width="320" height="46" rx="6" class="region"/><polyline class="lead" points="260,261 158,261 158,250 60,250"/><g transform="translate(282,261)"><circle r="15" class="badge"/><text class="badgeT">3</text></g><g transform="translate(10,250)"><circle cx="14" cy="0" r="13" class="badge"/><text x="14" y="0" class="badgeT">3</text><text x="34" y="0" class="callTb" dominant-baseline="central">Select highlight</text><text x="34" y="20" class="callT" dominant-baseline="central">focus</text></g></g>
  <g id="c2"><rect x="250" y="230" width="340" height="320" rx="8" class="region"/><polyline class="lead" points="250,400 150,400 150,360 60,360"/><g transform="translate(272,500)"><circle r="15" class="badge"/><text class="badgeT">2</text></g><g transform="translate(10,360)"><circle cx="14" cy="0" r="13" class="badge"/><text x="14" y="0" class="badgeT">2</text><text x="34" y="0" class="callTb" dominant-baseline="central">Menu list</text><text x="34" y="20" class="callT" dominant-baseline="central">single/co-op/codex…</text></g></g>
  <g id="c6"><rect x="250" y="690" width="360" height="50" rx="6" class="region"/><polyline class="lead" points="250,715 150,715 150,700 60,700"/><g transform="translate(272,712)"><circle r="15" class="badge"/><text class="badgeT">6</text></g><g transform="translate(10,700)"><circle cx="14" cy="0" r="13" class="badge"/><text x="14" y="0" class="badgeT">6</text><text x="34" y="0" class="callTb" dominant-baseline="central">Platform·license</text><text x="34" y="20" class="callT" dominant-baseline="central">bottom-left</text></g></g>
  <g id="c5"><rect x="1300" y="70" width="160" height="30" rx="5" class="region"/><polyline class="lead" points="1460,85 1490,85 1490,110 1530,110"/><g transform="translate(1320,85)"><circle r="15" class="badge"/><text class="badgeT">5</text></g><g transform="translate(1490,110)"><circle cx="14" cy="0" r="13" class="badge"/><text x="14" y="0" class="badgeT">5</text><text x="34" y="0" class="callTb" dominant-baseline="central">Version</text><text x="34" y="20" class="callT" dominant-baseline="central">top-right</text></g></g>
  <g id="c4"><rect x="820" y="110" width="560" height="620" rx="8" class="region"/><polyline class="lead" points="1380,400 1490,400 1490,360 1530,360"/><g transform="translate(845,132)"><circle r="15" class="badge"/><text class="badgeT">4</text></g><g transform="translate(1490,360)"><circle cx="14" cy="0" r="13" class="badge"/><text x="14" y="0" class="badgeT">4</text><text x="34" y="0" class="callTb" dominant-baseline="central">Key art</text><text x="34" y="20" class="callT" dominant-baseline="central">right · character</text></g></g>
  <g id="c7"><rect x="900" y="700" width="400" height="40" rx="6" class="region"/><polyline class="lead" points="1300,720 1490,720 1490,700 1530,700"/><g transform="translate(922,720)"><circle r="15" class="badge"/><text class="badgeT">7</text></g><g transform="translate(1490,700)"><circle cx="14" cy="0" r="13" class="badge"/><text x="14" y="0" class="badgeT">7</text><text x="34" y="0" class="callTb" dominant-baseline="central">Input prompt</text><text x="34" y="20" class="callT" dominant-baseline="central">bottom</text></g></g>
</svg>
